<svg xmlns="http://www.w3.org/2000/svg" version="1.1" xmlns:xlink="http://www.w3.org/1999/xlink" width="1024" height="1024"><svg xmlns="http://www.w3.org/2000/svg" version="1.1" xmlns:xlink="http://www.w3.org/1999/xlink" width="1024" height="1024"><svg xmlns="http://www.w3.org/2000/svg" xmlns:xlink="http://www.w3.org/1999/xlink" width="1024" height="1024" viewBox="0 0 1024 1024"><path fill="#283618" d="M501.599 55.1667C521.174 53.2064 546.576 67.814 561.627 79.5824C588.058 100.249 612.133 127.82 622.4 160.248C657.672 163.265 693.344 190.356 704.054 224.234C711.015 246.257 710.006 270.929 699.593 291.648C710.875 294.175 725.605 300.831 735.126 307.363C771.476 332.299 784.099 365.93 792.542 406.399C793.99 407.729 798.88 412.256 799.761 413.757C804.502 422.55 807.515 433.065 809.187 443.114C812.255 461.558 815.606 482.742 811.612 501.194C810.768 505.092 808.466 508.506 806.329 511.664C809.002 535.313 810.938 558.352 812.027 582.155C812.627 595.256 813.717 608.298 813.604 621.438C820.21 627.58 828.908 633.641 835.974 639.955C856.914 658.667 887.52 684.571 893.391 713.155C895.248 723.353 893.457 734.869 887.248 743.271C867.84 769.535 827.867 763.13 804.384 746.51C793.915 809.45 742.972 850.171 682.186 860.291C683.748 881.253 677.198 907.86 665.271 925.848C651.027 947.332 619.945 954.857 598.436 939.187C577.171 923.696 572.127 896.791 568.283 871.983C553.248 874.07 528.393 874.091 513.373 874.194C494.236 874.103 470.921 874.446 452.158 871.976C450.486 903.857 433.113 947.892 395.105 947.281C349.849 946.552 338.713 896.684 338.393 860.194C316.412 857.063 291.84 847.233 273.505 834.742C240.746 812.425 223.883 784.976 216.148 746.594C200.564 755.91 185.483 761.905 166.802 760.909C155.461 760.373 141.617 754.909 134.417 745.672C99.9167 701.407 178.542 644.389 206.51 620.772C207.062 593.602 209.264 565.908 211.381 538.801C212.06 530.111 212.831 520.287 214.298 511.785C212.032 509.034 210.187 506.301 208.966 502.921C202.42 484.805 210.393 436.24 217.619 418.094C219.758 412.722 225.53 409.96 227.354 404.59C229.242 399.035 230.144 392.927 231.595 387.215C234.157 377.127 237.784 367.194 242.304 357.818C257.826 325.621 282.171 304.245 315.802 292.624C296.97 252.175 311.615 210.196 345.49 183.15C367.484 165.591 391.373 156.35 417.706 147.283C432.975 142.026 448.896 135.943 462.762 127.581C475.599 119.588 490.547 107.134 484.479 90.0344C482.937 85.1669 479.755 80.4304 478.799 75.429C476.218 61.9294 491.126 56.4498 501.599 55.1667Z"></path><path fill="#fefae0" d="M237.064 516.087C251.328 515.883 266.054 514.53 280.381 513.947C398.16 509.151 516.274 507.698 634.125 510.423C683.674 511.569 734.057 513.179 783.451 516.745C788.472 553.831 789.171 592.1 791.148 629.425C791.259 631.367 791.624 633.062 793.169 634.359C816.756 654.168 843.245 674.623 861.608 699.474C872.704 714.489 877.468 734.649 853.486 737.56C834.682 739.843 810.477 726.198 797.392 712.72C796.047 711.334 793.036 709.99 791.252 710.457C782.573 711.687 784.112 720.138 783.674 726.748C782.952 737.631 780.759 748.445 777.464 758.903C764.373 801.191 724.86 826.965 683.79 836.991C658.792 843.092 660.738 837.98 659.405 863.431C658.578 879.196 655.749 898.813 646.806 912.084C638.581 924.288 621.984 928.188 609.802 918.348C596.336 906.566 593.334 882.948 591.372 866.468C598.985 857.245 605.632 845.438 586.793 847.095C539.223 851.278 491.058 852.046 443.462 847.881C425.821 846.337 414.289 845.395 428.886 865.482C426.784 885.081 421.714 924.283 394.858 923.889C364.768 923.449 361.878 876.832 360.817 855.194C360.384 849.239 361.025 842.227 353.555 840.743C316.51 833.383 280.125 818.554 257.226 786.877C242.91 767.075 237.369 742.709 236.943 718.518C236.882 715.068 232.26 708.965 228.193 709.719C225.394 710.151 223.29 712.041 221.396 714.148L221.579 715.299C215.36 722.705 187.623 740.446 178.326 737.218C173.459 737.609 165.996 737.987 161.495 736.21C134.13 725.409 161.1 694.752 171.573 683.692C190.245 663.973 208.302 649.997 227.891 631.899C228.027 631.741 228.162 631.583 228.298 631.425C229.032 627.852 229.178 623.979 229.36 620.336C230.657 595.815 232.117 571.236 234.059 546.759C234.847 536.836 235.514 525.87 237.064 516.087Z"></path><path fill="#27110B" d="M221.396 714.148L221.579 715.299C215.36 722.705 187.623 740.446 178.326 737.218C195.336 733.782 208.98 726.163 221.396 714.148Z"></path><path fill="#283618" d="M387.528 554.686C395.862 553.603 406.153 557.263 412.709 562.364C444.251 586.911 435.198 649.555 392.121 654.824C383.246 655.677 373.473 652.437 366.484 646.975C335.194 622.521 344.512 559.599 387.528 554.686Z"></path><path fill="#F5F5F5" d="M401.038 580.638C414.492 581.641 416.467 596.627 403.688 601.66C389.991 601.966 388.221 583.95 401.038 580.638Z"></path><path fill="#283618" d="M628.761 554.644C636.14 553.805 645.497 556.04 651.726 560.267C679.785 579.31 681.452 627.317 653.878 647.566C648.593 651.447 643.394 653.182 637.005 654.446C627.653 656.042 616.823 653.337 609.334 647.484C578.385 623.295 586.02 560.511 628.761 554.644Z"></path><path fill="#F5F5F5" d="M619.41 580.985C624.916 580.216 630.029 583.985 630.922 589.473C631.816 594.961 628.164 600.157 622.698 601.175C619.05 601.854 615.321 600.505 612.952 597.65C610.583 594.795 609.945 590.88 611.286 587.421C612.627 583.961 615.735 581.499 619.41 580.985Z"></path><path fill="#283618" d="M473.786 621.587C475.585 621.715 477.337 621.784 478.847 622.888C480.197 623.874 481.442 626.063 482.387 627.464C486.236 633.171 489.615 637.755 495.702 641.236C500.916 644.218 506.499 645.413 512.471 645.42C537.793 645.45 538.882 624.362 548.156 622.076C550.19 621.575 552.302 621.58 554.119 622.738C556.097 623.997 557.175 626.395 557.677 628.602C558.846 633.734 556.816 637.718 554.151 641.898C534.347 671.743 479.102 670.425 466.204 633.457C464.182 627.661 467.872 622.945 473.786 621.587Z"></path><path fill="#fefae0" d="M507.901 80.1064C534.399 85.9798 560.778 108.994 577.822 129.91C605.426 163.785 610.925 199.047 578.535 231.969C575.813 235.74 562.466 243.974 562.727 248.409C563.911 268.538 593.265 244.081 597.59 240.141C614.164 225.045 623.117 207.082 624.111 185.037C687.729 200.495 706.991 271.229 652.78 310.989C649.15 313.652 644.787 315.429 641.497 317.812L640.886 318.261C639.492 323.173 597.033 335.136 590.382 333.217C576.599 334.635 580.133 344.87 592.344 344.485C619.073 343.642 646.918 340.171 670.455 326.56C677.287 322.609 682.642 317.804 688.263 312.389C697.432 314.686 710.054 320.344 718.039 325.287C745.915 342.545 759.872 370.115 766.938 401.206C763.738 400.691 760.205 400.187 756.973 399.895C682.367 393.154 607.066 391.242 532.178 390.996C450.431 390.729 368.366 391.748 286.83 397.717C275.657 398.535 263.738 399.381 252.71 400.996C264.215 354.946 284.058 326.725 331.055 312.774C363.397 343.233 415.218 345.1 457.26 344.198C464.022 344.053 467.316 338.219 463.024 336.794C455.112 334.166 439.222 332.18 431.169 331.277C378.897 325.417 310.888 294.114 337.85 230.06C343.355 217.018 354.787 206.623 366.084 197.789C408.572 164.567 527.524 158.748 507.901 80.1064Z"></path><path fill="#fefae0" d="M640.886 318.261C639.492 323.173 597.033 335.136 590.382 333.217C610.547 329.472 621.928 326.758 640.886 318.261Z"></path><path fill="#dda15e" d="M476.171 414.25C511.657 413.621 547.386 414.361 582.871 414.824C589.667 414.913 596.527 414.885 603.31 415.056C657.353 416.414 711.509 418.163 765.28 424.057C769.926 424.566 774.618 424.929 779.184 425.938C786.9 442.175 790.28 467.097 790.679 485.158C790.724 487.169 790.768 491.165 789.05 492.557C785.877 495.129 757.688 491.977 751.754 491.663C683.039 488.027 614.442 485.663 545.625 485.434C465.218 485.085 381.722 485.848 301.298 489.859L260.605 492.033C255.928 492.326 234.841 494.312 232.002 492.746C225.984 486.096 235.877 434.738 241.681 425.458C242.946 423.435 264.668 422.322 268.533 421.994C337.627 416.134 406.873 414.919 476.171 414.25Z"></path></svg><style>@media (prefers-color-scheme: light) { :root { filter: none; } }
@media (prefers-color-scheme: dark) { :root { filter: none; } }
</style></svg><style>@media (prefers-color-scheme: light) { :root { filter: none; } }
@media (prefers-color-scheme: dark) { :root { filter: none; } }
</style></svg>