<?xml version="1.0" encoding="utf-8"?>
<!-- Generator: Adobe Illustrator 25.1.0, SVG Export Plug-In . SVG Version: 6.00 Build 0)  -->
<svg version="1.1" xmlns="http://www.w3.org/2000/svg" xmlns:xlink="http://www.w3.org/1999/xlink" x="0px" y="0px"
	 viewBox="0 0 738.8 212.9" style="enable-background:new 0 0 738.8 212.9;" xml:space="preserve">
<style type="text/css">
	.st0{fill:#011A42;}
</style>
<g id="University">
	<g>
		<polygon class="st0" points="619.8,145.5 609.5,145.5 625.4,174.7 625.4,192.2 634.2,192.2 634.2,174.8 650.3,145.5 640.7,145.5 
			630.3,166.5 		"/>
		<polygon class="st0" points="388.5,145.5 379.1,145.5 395.7,192.6 405.3,192.6 422.3,145.5 412.9,145.5 400.6,182.5 		"/>
		<path class="st0" d="M280.5,145.4h-8.7v27.8c0,13.6,5.7,20.2,18.8,20.2c13.2,0,18.9-6.6,18.9-20.2v-27.8h-8.8v28.1
			c0,8.6-3.5,11.8-10.1,11.8c-6.5,0-10-3.2-10-11.8V145.4z"/>
		<path class="st0" d="M540.1,159l7-5.4c-3.9-6.4-9.8-9.5-19.1-9.5c-11.6,0-17.5,6.1-17.5,14c0,19.3,26.9,11.1,27,21.1
			c0.1,4.3-3.2,6.4-9.2,6.4c-5.4,0-9.4-1.9-12.2-6.5l-6.6,5.6c4.4,6.7,11,8.7,18.3,8.7c12.6,0,18.7-5.5,18.9-14.8
			c0.3-17.7-26.9-11-27-20.7c-0.1-3.9,3.1-6,8.5-6C533.9,152,537.8,154.9,540.1,159z"/>
		<polygon class="st0" points="327.5,145.5 318.9,145.5 318.9,192.2 327.2,192.2 326.9,159.9 346.4,192.2 355,192.2 355,145.5 
			346.7,145.5 347,177.8 		"/>
		<polygon class="st0" points="460.1,192.2 460.1,184.3 435.8,184.3 435.8,172.6 458.1,172.6 458.1,165 435.8,165 435.8,153.4 
			460.1,153.4 460.1,145.5 427.1,145.5 427.1,192.2 		"/>
		<polygon class="st0" points="583.6,192.2 592.4,192.2 592.4,153.4 606.7,153.4 606.7,145.5 569.3,145.5 569.3,153.4 583.6,153.4 
					"/>
		<rect x="555" y="145.5" class="st0" width="8.7" height="46.7"/>
		<rect x="364.4" y="145.5" class="st0" width="8.7" height="46.7"/>
		<path class="st0" d="M494,174c5.6-2.3,8.4-6.8,8.4-13.4c0-10.7-7.4-15.2-19.8-15.2h-14.2v46.7h8.7v-16.4h8l10.3,16.4H506L494,174z
			 M483.1,168.2h-6v-15.1h6.1c6.8,0,10.1,2.2,10.1,7.5C493.3,166.1,489.6,168.2,483.1,168.2z"/>
	</g>
</g>
<g id="John_Moores">
	<polygon class="st0" points="478.7,81 466.9,81 466.9,127.7 475.3,127.7 475,94.3 485.8,123.7 494.1,123.7 504.9,94.3 504.6,127.7 
		513,127.7 513,81 502.1,81 490.3,112.9 	"/>
	<path class="st0" d="M271.7,128.3c1.7,0.3,3.4,0.5,5.2,0.5c11,0,16.3-5.2,16.3-18.9V80.9h-8.7v29c0,8.5-2.4,10.7-8,10.7
		c-1.9,0-3.5-0.3-4.8-0.7V128.3z"/>
	<path class="st0" d="M731.8,94.5l7-5.4c-3.9-6.4-9.8-9.5-19.1-9.5c-11.6,0-17.5,6.1-17.5,14c0,19.3,26.9,11.1,27,21.1
		c0.1,4.3-3.2,6.4-9.2,6.4c-5.4,0-9.4-1.9-12.2-6.5l-6.6,5.6c4.4,6.7,11,8.7,18.3,8.7c12.6,0,18.7-5.5,18.9-14.8
		c0.3-17.7-26.9-11-27-20.7c-0.1-3.9,3.1-6,8.5-6C725.6,87.5,729.5,90.4,731.8,94.5z"/>
	<polygon class="st0" points="406.6,81 398,81 398,127.7 406.4,127.7 406,95.4 425.6,127.7 434.2,127.7 434.2,81 425.9,81 
		426.2,113.3 	"/>
	<polygon class="st0" points="360.6,81 352,81 352,127.7 360.6,127.7 360.6,107.6 380.8,107.6 380.8,127.7 389.6,127.7 389.6,81 
		380.8,81 380.8,99.6 360.6,99.6 	"/>
	<path class="st0" d="M322.7,79.7c-12.5,0-22.1,6.9-22.1,24.7c0,17.7,9.6,24.5,22.1,24.5s22.1-6.9,22.1-24.5
		C344.7,86.6,335.2,79.7,322.7,79.7z M322.7,120.9c-7.8,0-13-5-13-16.6c0-11.5,5.2-16.6,13-16.6c7.8,0,13,5.1,13,16.6
		C335.6,115.9,330.5,120.9,322.7,120.9z"/>
	<path class="st0" d="M590.9,79.7c-12.5,0-22.1,6.9-22.1,24.7c0,17.7,9.6,24.5,22.1,24.5S613,122,613,104.3
		C613,86.6,603.4,79.7,590.9,79.7z M590.9,120.9c-7.8,0-13-5-13-16.6c0-11.5,5.2-16.6,13-16.6c7.8,0,13,5.1,13,16.6
		C603.8,115.9,598.7,120.9,590.9,120.9z"/>
	<path class="st0" d="M541.4,79.7c-12.5,0-22.1,6.9-22.1,24.7c0,17.7,9.6,24.5,22.1,24.5s22.1-6.9,22.1-24.5
		C563.5,86.6,553.9,79.7,541.4,79.7z M541.4,120.9c-7.8,0-13-5-13-16.6c0-11.5,5.2-16.6,13-16.6c7.8,0,13,5.1,13,16.6
		C554.4,115.9,549.2,120.9,541.4,120.9z"/>
	<polygon class="st0" points="696,127.7 696,119.8 671.7,119.8 671.7,108.1 694,108.1 694,100.5 671.7,100.5 671.7,88.9 696,88.9 
		696,81 663,81 663,127.7 	"/>
	<path class="st0" d="M645.3,109.5c5.6-2.3,8.4-6.8,8.4-13.4c0-10.7-7.4-15.2-19.8-15.2h-14.2v46.7h8.7v-16.4h8l10.3,16.4h10.7
		L645.3,109.5z M634.3,103.7h-6V88.7h6.1c6.8,0,10.1,2.2,10.1,7.5C644.5,101.6,640.9,103.7,634.3,103.7z"/>
</g>
<g id="Liverpool">
	<path class="st0" d="M565,15.1c-12.5,0-22.1,6.9-22.1,24.7c0,17.7,10.6,24.5,23.1,24.5c12.5,0,21.1-6.9,21.1-24.5
		C587.1,22.1,577.5,15.1,565,15.1z M565,56.4c-7.8,0-13-5-13-16.6c0-11.5,5.2-16.6,13-16.6c7.8,0,13,5.1,13,16.6
		C577.9,51.4,572.8,56.4,565,56.4z"/>
	<path class="st0" d="M515.5,15.1c-12.5,0-22.1,6.9-22.1,24.7c0,17.7,9.6,24.5,22.1,24.5s22.1-6.9,22.1-24.5
		C537.6,22.1,528,15.1,515.5,15.1z M515.5,56.4c-7.8,0-13-5-13-16.6c0-11.5,5.2-16.6,13-16.6c7.8,0,13,5.1,13,16.6
		C528.5,51.4,523.3,56.4,515.5,56.4z"/>
	<polygon class="st0" points="403.3,63.2 403.3,55.3 378.9,55.3 378.9,43.6 401.2,43.6 401.2,36 378.9,36 378.9,24.4 403.3,24.4 
		403.3,16.5 370.2,16.5 370.2,63.2 	"/>
	<polygon class="st0" points="331.3,16.5 321.9,16.5 338.5,63.6 348.1,63.6 365.1,16.5 355.7,16.5 343.4,53.5 	"/>
	<polygon class="st0" points="603,16.5 594.4,16.5 594.4,63.2 622.9,63.2 622.9,55.3 603,55.3 	"/>
	<polygon class="st0" points="280.4,16.5 271.7,16.5 271.7,63.2 300.3,63.2 300.3,55.3 280.4,55.3 	"/>
	<rect x="306.7" y="16.5" class="st0" width="8.7" height="46.7"/>
	<path class="st0" d="M437,45c5.6-2.3,8.4-6.8,8.4-13.4c0-10.7-7.4-15.2-19.8-15.2h-14.2v46.7h8.7V46.8h8l10.3,16.4H449L437,45z
		 M426,39.2h-6V24.1h6.1c6.8,0,10.1,2.2,10.1,7.5C436.2,37,432.5,39.2,426,39.2z"/>
	<path class="st0" d="M469.1,16.5h-14.2v46.7h8.7V48h6.3c12.6,0,19.1-5.4,19.1-15.7C488.9,21.1,481.5,16.5,469.1,16.5z M469.6,40.4
		h-6V24.1h6.1c6.8,0,10.1,2.4,10.1,8.1C479.7,38,476.1,40.4,469.6,40.4z"/>
</g>
<g id="Liver_Bird">
	<g>
		<path class="st0" d="M115.6,80.7C74.2,52.6,74.5,30.3,74,26.1c0,0-24.8-9.6-24.7-9.5c1.6,2.8,9.4,25.8,49,58.6
			c10.9,9,31.6,24,31.1,38.8c-0.2,6-5,10-13.7,10.1c-23.3,0-36.5-22.7-49.6-46c-16-28.5-33.5-55.2-64.4-64.8
			c-0.9-0.3-1.4-0.3-1.7,0.2c-0.2,0.4-0.1,0.8,1.1,1.5c25.4,16.2,37.4,37.9,50.2,60.3c8.1,14.2,15.8,27.5,25.7,37.5
			c11.2,11.1,23.7,16.6,39.3,16.6c16.1,0,25-6.3,25-17.7C141.4,99.3,126.8,88.3,115.6,80.7z"/>
		<path class="st0" d="M186,103.9c-1.1-0.4-1.6-0.2-1.8,0.2c-0.3,0.5,0.2,1.1,0.8,1.5c13,9.2,19.2,20.3,19.2,33.6
			c0,10.5-4.9,38-51.6,70.5c-1.7,1.2-2.8,2-2.4,2.8c0.1,0.3,0.9,0.5,2.1-0.1c30.6-14.2,61.6-41.9,61.7-74.2
			C214,119.3,196.8,107.7,186,103.9z"/>
		<path class="st0" d="M239.7,33.4c-4.5-0.2-6.6-1-9.4-1.8c-2.7-0.8-15.4-5-16.7,6.3l-10.6,1c4.7-5.6,10.3-11.6,15.7-16.9
			c12.7,7.6,15.3-13.3,19.6-17.9c0,0-3.6-0.1-6.9,0.5c-8.2,1.4-12.9,3.8-15,7.6c-1.6,2.8-0.9,6.5,1.5,9.1
			c-5.8,5-11.8,10.7-16.8,15.9l0.6-10.9c11.1-2.3,5.7-14.9,4.7-17.5c-1-2.8-2.1-5.3-2.4-8.9c0,0-2.5,2.1-4.6,4.8
			c-5.1,6.5-7.1,11.7-6.2,15.9c0.7,3.3,3.9,5.6,7.4,5.8l-1.5,13c-2.5,2.7-5.2,5.7-7.5,8.5c-27.4-23.9-48.2-23.8-57.6-37.1
			c-0.1-0.1-0.2-0.1-0.2-0.1C122,6.5,89.4,6.5,89.1,6.5c-13.7,0-46.4-2.8-46.4-2.5c0,0.1,10.4,5.2,34.9,13.7c0.1,0,0.1,0,0.2,0
			c10.4-9.8,43.4-8.7,56.6-3.1c3.4,7.6,10.4,12.2,18.8,16.4c5,2.5,12.1,6.4,20,12.4c0,0.1-2.4-0.4-3-0.6c-10.7-1.6-27-1.7-32.3-1.7
			c-3.3-8-13.4-9.5-18.7-9.6c-6.6-0.2-11,1.3-19.4-2.5c-0.1,0.1,3.9,4.7,4.7,5.2c0.1,0,0.2,0.1,3.8,0l0.1,0.1
			c5,6.7,11.3,14.7,12.6,14.7c0,0,0,0,0,0c0.5-0.1,1.4-0.3,1.4-0.3c34.2-6.2,53.8,3.5,62.5,7.4l0.5,0.2
			c-13.4,18.5-21.1,35.5-23.2,51.4c-1.8,13.9,0.8,25.2,3.4,34.6c0,0,5.9-8.2,5.9-8.2c-2.9-13.7-3-25.8,0.1-38.6
			c2.9-12.2,8.3-25.1,17.2-37.6c7.5,3.8,13.6,8.5,16.1,10.6c1.4,1.2,1.7,1.6,1.8,1.5c0.5-0.7-4.8-12.7-12.6-19.6
			c2.2-3,4.8-6.2,7.3-9.2l12.5-2c2.3,9.7,10.8,7.4,17.5,2.7C235.8,38.7,239.8,33.4,239.7,33.4z M130.5,39.9
			c-0.1,4.1-5.5,4.7-5.9,4.7c-6.2-0.8-10.1-7.5-11.5-10.5C121.6,34.6,127.6,37.8,130.5,39.9z"/>
	</g>
</g>
</svg>
